<?xml version="1.0" encoding="UTF-8"?>
<svg xmlns="http://www.w3.org/2000/svg" xmlns:xlink="http://www.w3.org/1999/xlink" width="100%" height="100%" viewBox="0 0 32 32" version="1.1" fill="rgb(13.333333%,13.333333%,13.333333%)">
<g id="surface1">
<path style=" stroke:none;fill-rule:evenodd;fill-opacity:1;" d="M 28.800781 16 C 28.800781 19.394531 27.453125 22.652344 25.050781 25.050781 C 22.652344 27.453125 19.394531 28.800781 16 28.800781 C 12.605469 28.800781 9.347656 27.453125 6.949219 25.050781 C 4.546875 22.652344 3.199219 19.394531 3.199219 16 C 3.199219 12.605469 4.546875 9.347656 6.949219 6.949219 C 9.347656 4.546875 12.605469 3.199219 16 3.199219 C 19.394531 3.199219 22.652344 4.546875 25.050781 6.949219 C 27.453125 9.347656 28.800781 12.605469 28.800781 16 Z M 16 11.199219 C 15.71875 11.199219 15.441406 11.273438 15.199219 11.414062 C 14.957031 11.554688 14.753906 11.757812 14.613281 12 C 14.511719 12.1875 14.371094 12.355469 14.207031 12.488281 C 14.039062 12.625 13.847656 12.722656 13.640625 12.78125 C 13.433594 12.839844 13.21875 12.855469 13.007812 12.828125 C 12.792969 12.804688 12.589844 12.734375 12.402344 12.628906 C 12.21875 12.519531 12.054688 12.375 11.925781 12.207031 C 11.796875 12.035156 11.703125 11.839844 11.652344 11.632812 C 11.601562 11.425781 11.589844 11.207031 11.621094 10.996094 C 11.65625 10.785156 11.730469 10.582031 11.84375 10.398438 C 12.371094 9.484375 13.1875 8.769531 14.164062 8.367188 C 15.140625 7.960938 16.222656 7.890625 17.242188 8.164062 C 18.261719 8.4375 19.164062 9.039062 19.808594 9.878906 C 20.453125 10.714844 20.800781 11.742188 20.800781 12.800781 C 20.800781 13.792969 20.492188 14.761719 19.917969 15.574219 C 19.347656 16.382812 18.535156 16.996094 17.601562 17.328125 L 17.601562 17.601562 C 17.601562 18.023438 17.429688 18.429688 17.132812 18.730469 C 16.832031 19.03125 16.425781 19.199219 16 19.199219 C 15.574219 19.199219 15.167969 19.03125 14.867188 18.730469 C 14.570312 18.429688 14.398438 18.023438 14.398438 17.601562 L 14.398438 16 C 14.398438 15.574219 14.570312 15.167969 14.867188 14.867188 C 15.167969 14.570312 15.574219 14.398438 16 14.398438 C 16.425781 14.398438 16.832031 14.230469 17.132812 13.929688 C 17.429688 13.632812 17.601562 13.222656 17.601562 12.800781 C 17.601562 12.375 17.429688 11.96875 17.132812 11.667969 C 16.832031 11.367188 16.425781 11.199219 16 11.199219 Z M 16 24 C 16.425781 24 16.832031 23.832031 17.132812 23.53125 C 17.429688 23.230469 17.601562 22.824219 17.601562 22.398438 C 17.601562 21.976562 17.429688 21.570312 17.132812 21.269531 C 16.832031 20.96875 16.425781 20.800781 16 20.800781 C 15.574219 20.800781 15.167969 20.96875 14.867188 21.269531 C 14.570312 21.570312 14.398438 21.976562 14.398438 22.398438 C 14.398438 22.824219 14.570312 23.230469 14.867188 23.53125 C 15.167969 23.832031 15.574219 24 16 24 Z M 16 24 "/>
</g>
</svg>
