<svg width="48" height="48" viewBox="0 0 48 48" fill="none" xmlns="http://www.w3.org/2000/svg">
<circle cx="24" cy="24" r="24" fill="#EEEEEE"/>
<path d="M33 33L28.514 28.506L33 33ZM31 22.5C31 24.7543 30.1045 26.9163 28.5104 28.5104C26.9163 30.1045 24.7543 31 22.5 31C20.2457 31 18.0837 30.1045 16.4896 28.5104C14.8955 26.9163 14 24.7543 14 22.5C14 20.2457 14.8955 18.0837 16.4896 16.4896C18.0837 14.8955 20.2457 14 22.5 14C24.7543 14 26.9163 14.8955 28.5104 16.4896C30.1045 18.0837 31 20.2457 31 22.5V22.5Z" stroke="#989898" stroke-width="2" stroke-linecap="round"/>
</svg>
